<svg xmlns="http://www.w3.org/2000/svg" width="684.352" height="242" viewBox="0 0 684.352 242">
  <defs>
    <style>
      .cls-1, .cls-2, .cls-5 {
        fill: none;
      }

      .cls-1, .cls-2 {
        stroke: #fff;
        stroke-width: 2px;
      }

      .cls-1 {
        stroke-linecap: round;
        stroke-linejoin: round;
      }

      .cls-3 {
        fill: #fff;
      }

      .cls-4 {
        stroke: none;
      }
    </style>
  </defs>
  <g id="Grupo_23" data-name="Grupo 23" transform="translate(-617 -419)">
    <g id="Grupo_10" data-name="Grupo 10" transform="translate(-204 18)">
      <path id="github" class="cls-1" d="M43.2,99.367C13.771,107.554,13.771,85.721,2,82.992m82.4,32.749V94.618a17.631,17.631,0,0,0-5.532-14.246c18.481-1.91,37.9-8.406,37.9-38.207A28.576,28.576,0,0,0,107.944,21.7a25.817,25.817,0,0,0-.534-20.581S100.465-.791,84.4,9.2a84.707,84.707,0,0,0-41.2,0C27.131-.791,20.186,1.119,20.186,1.119a25.817,25.817,0,0,0-.53,20.577,28.57,28.57,0,0,0-8.828,20.632c0,29.583,19.422,36.079,37.9,38.207A17.638,17.638,0,0,0,43.2,94.618v21.123" transform="translate(881.885 462.912)"/>
      <g id="Elipse_6" data-name="Elipse 6" class="cls-2" transform="translate(821 401)">
        <circle class="cls-4" cx="121" cy="121" r="121"/>
        <circle class="cls-5" cx="121" cy="121" r="120"/>
      </g>
    </g>
    <path id="Caminho_9" data-name="Caminho 9" class="cls-3" d="M13.383-19.008H23.859V-1.43a23.891,23.891,0,0,1-9.469,1.9,10.6,10.6,0,0,1-9.2-4.547Q1.969-8.625,1.969-17.18q0-8.25,3.691-12.914t10.324-4.664a15.663,15.663,0,0,1,7.828,2.109l-2.016,5.2a10.929,10.929,0,0,0-5.437-1.687,6.557,6.557,0,0,0-5.754,3.246q-2.121,3.246-2.121,8.848,0,5.766,1.535,8.836a4.826,4.826,0,0,0,4.465,3.07,12.916,12.916,0,0,0,3.141-.4v-7.852H13.383ZM34.992,0H28.758V-26.109h6.234ZM28.5-32.93a3.309,3.309,0,0,1,.9-2.449,3.406,3.406,0,0,1,2.52-.9,3.318,3.318,0,0,1,2.438.9,3.286,3.286,0,0,1,.914,2.449,3.224,3.224,0,0,1-.937,2.473,3.388,3.388,0,0,1-2.414.879,3.485,3.485,0,0,1-2.484-.879A3.224,3.224,0,0,1,28.5-32.93ZM49.406-4.8a7.207,7.207,0,0,0,2.836-.656V-.586A8.063,8.063,0,0,1,47.672.469a6.1,6.1,0,0,1-5.039-2.027q-1.641-2.027-1.641-6.082V-21.164H38.461v-2.789l3.258-2.25,1.594-5.531H47.3v5.625h4.734v4.945H47.3V-7.43Q47.3-4.8,49.406-4.8ZM68.906,0V-15.562q0-5.742-2.883-5.742A3.078,3.078,0,0,0,63-19.043a18.962,18.962,0,0,0-.867,6.5V0H55.9V-36.469h6.234v8.109q0,1.57-.281,5.6h.328A6.1,6.1,0,0,1,67.945-26.6a6.354,6.354,0,0,1,5.414,2.426q1.828,2.426,1.828,7.137V0Zm25.43,0-.773-3.352h-.328a6.731,6.731,0,0,1-2.473,2.8A6.7,6.7,0,0,1,87.094.469a6.25,6.25,0,0,1-5.32-2.391q-1.8-2.391-1.8-7.148V-26.109h6.3V-10.57a10.589,10.589,0,0,0,.68,4.313,2.285,2.285,0,0,0,2.2,1.453A3.072,3.072,0,0,0,92.1-6.82q.926-2.016.926-6.773V-26.109h6.3V0Zm22.008-26.6a6.234,6.234,0,0,1,5.6,3.539q2.039,3.539,2.039,9.961,0,6.492-2.051,10.031A6.309,6.309,0,0,1,116.25.469a6.2,6.2,0,0,1-3.105-.762A7.563,7.563,0,0,1,110.6-2.977h-.4L109.148,0h-4.594V-36.469h6.234v8.531q0,.539-.023,1.125t-.3,4.1h.328a7.972,7.972,0,0,1,2.484-3.023A5.513,5.513,0,0,1,116.344-26.6Zm-2.156,5.3a2.656,2.656,0,0,0-2.566,1.664,15.6,15.6,0,0,0-.832,5.859v.633a17.669,17.669,0,0,0,.809,6.4A2.73,2.73,0,0,0,114.234-4.9q3.375,0,3.375-8.3Q117.609-21.3,114.188-21.3ZM141.75,0V-34.266h6V0Zm25.875,0V-15.562a10.514,10.514,0,0,0-.68-4.289,2.285,2.285,0,0,0-2.2-1.453,3.094,3.094,0,0,0-2.953,2q-.937,2-.937,6.762V0h-6.234V-26.109h4.945l.75,3.352h.4a6.627,6.627,0,0,1,2.414-2.824,6.606,6.606,0,0,1,3.68-1.02,6.158,6.158,0,0,1,5.332,2.438q1.77,2.438,1.77,7.125V0Zm20.391-4.8a7.207,7.207,0,0,0,2.836-.656V-.586a8.063,8.063,0,0,1-4.57,1.055,6.1,6.1,0,0,1-5.039-2.027Q179.6-3.586,179.6-7.641V-21.164H177.07v-2.789l3.258-2.25,1.594-5.531h3.984v5.625h4.734v4.945h-4.734V-7.43Q185.906-4.8,188.016-4.8ZM204.141.469a9.41,9.41,0,0,1-7.723-3.48q-2.824-3.48-2.824-9.855,0-6.469,2.555-10.1a8.221,8.221,0,0,1,7.125-3.633A8.118,8.118,0,0,1,210-23.5q2.461,3.105,2.461,8.707v3.328H199.922a8.516,8.516,0,0,0,1.43,5.191,4.538,4.538,0,0,0,3.75,1.7,12.153,12.153,0,0,0,6.234-1.9v5.133A13.7,13.7,0,0,1,204.141.469ZM203.227-21.8a2.544,2.544,0,0,0-2.2,1.418,9.54,9.54,0,0,0-1.008,4.395h6.328a9.452,9.452,0,0,0-.867-4.336A2.5,2.5,0,0,0,203.227-21.8Zm32.156-4.266v3.656l-3.117.7a8.393,8.393,0,0,1,.914,4.125,8.988,8.988,0,0,1-2.25,6.492,8.3,8.3,0,0,1-6.281,2.344,5.9,5.9,0,0,1-1.734-.187,7.651,7.651,0,0,0-.844.891,1.874,1.874,0,0,0-.4,1.219q0,1.641,2.836,1.641h3.773A6.929,6.929,0,0,1,233.4-3.387a7.341,7.341,0,0,1,1.793,5.4,8.558,8.558,0,0,1-3.047,7.031q-3.047,2.484-8.766,2.484-4.336,0-6.68-1.887a6.507,6.507,0,0,1-2.344-5.379A5.917,5.917,0,0,1,215.7.434a7.542,7.542,0,0,1,3.7-2.4,4.5,4.5,0,0,1-1.957-1.453,3.646,3.646,0,0,1-.762-2.3,4.2,4.2,0,0,1,.234-1.441,4.657,4.657,0,0,1,.668-1.219,12.661,12.661,0,0,1,1.77-1.7A6.665,6.665,0,0,1,216.8-13.1a10.7,10.7,0,0,1-.937-4.523,9.193,9.193,0,0,1,2.25-6.633,8.518,8.518,0,0,1,6.445-2.344,11.024,11.024,0,0,1,1.828.176,10.4,10.4,0,0,1,1.57.363ZM220.031,3.8A2.959,2.959,0,0,0,221,6.176a4.152,4.152,0,0,0,2.777.832,6.979,6.979,0,0,0,4.254-1.078,3.508,3.508,0,0,0,1.418-2.953,2.527,2.527,0,0,0-.762-2.086,4.78,4.78,0,0,0-2.848-.609H222.82a2.468,2.468,0,0,0-2.027.949A3.986,3.986,0,0,0,220.031,3.8Zm1.922-21.375q0,4.617,2.6,4.617,2.531,0,2.531-4.664,0-4.781-2.531-4.781Q221.953-22.406,221.953-17.578Zm27.7-9.023a7.357,7.357,0,0,1,2.25.352L251.18-20.2a5.188,5.188,0,0,0-1.711-.234,3.969,3.969,0,0,0-3.492,1.793,9.27,9.27,0,0,0-1.219,5.215V0h-6.234V-26.109h5.133l.7,4.078h.211a9.468,9.468,0,0,1,2.25-3.516A4.2,4.2,0,0,1,249.656-26.6ZM267.492,0,266.25-3.562h-.141A8.856,8.856,0,0,1,263.25-.4a7.268,7.268,0,0,1-3.727.867,5.4,5.4,0,0,1-4.535-2.156,9.661,9.661,0,0,1-1.652-6q0-4.125,2.262-6.129t6.762-2.215l3.469-.141v-1.875q0-3.656-3.164-3.656a10.823,10.823,0,0,0-5.391,1.828l-2.156-4.312a15.526,15.526,0,0,1,8.461-2.461,8.115,8.115,0,0,1,6.316,2.379,9.65,9.65,0,0,1,2.168,6.738V0Zm-5.414-4.406a3.134,3.134,0,0,0,2.73-1.535,7.289,7.289,0,0,0,1.02-4.09v-2.2l-1.922.094a4.363,4.363,0,0,0-3.129,1.219,4.75,4.75,0,0,0-1,3.281Q259.781-4.406,262.078-4.406Zm24.094-.4a7.207,7.207,0,0,0,2.836-.656V-.586a8.063,8.063,0,0,1-4.57,1.055A6.1,6.1,0,0,1,279.4-1.559q-1.641-2.027-1.641-6.082V-21.164h-2.531v-2.789l3.258-2.25,1.594-5.531h3.984v5.625H288.8v4.945h-4.734V-7.43Q284.063-4.8,286.172-4.8ZM298.945,0h-6.234V-26.109h6.234Zm-6.492-32.93a3.309,3.309,0,0,1,.9-2.449,3.406,3.406,0,0,1,2.52-.9,3.318,3.318,0,0,1,2.438.9,3.286,3.286,0,0,1,.914,2.449,3.224,3.224,0,0,1-.937,2.473,3.388,3.388,0,0,1-2.414.879,3.485,3.485,0,0,1-2.484-.879A3.224,3.224,0,0,1,292.453-32.93ZM323.625-13.1q0,6.422-2.719,10A8.853,8.853,0,0,1,313.453.469a8.88,8.88,0,0,1-5.3-1.641,10.388,10.388,0,0,1-3.539-4.723,19.2,19.2,0,0,1-1.242-7.207q0-6.352,2.7-9.926a8.838,8.838,0,0,1,7.477-3.574,8.71,8.71,0,0,1,7.348,3.645Q323.625-19.312,323.625-13.1Zm-13.875,0a16.416,16.416,0,0,0,.891,6.164A2.984,2.984,0,0,0,313.5-4.852q3.75,0,3.75-8.25a15.83,15.83,0,0,0-.9-6.129,2.985,2.985,0,0,0-2.848-2.027,2.978,2.978,0,0,0-2.859,2.027A16.02,16.02,0,0,0,309.75-13.1ZM341.016,0V-15.562a10.514,10.514,0,0,0-.68-4.289,2.285,2.285,0,0,0-2.2-1.453,3.094,3.094,0,0,0-2.953,2q-.937,2-.937,6.762V0h-6.234V-26.109h4.945l.75,3.352h.4a6.627,6.627,0,0,1,2.414-2.824,6.606,6.606,0,0,1,3.68-1.02,6.158,6.158,0,0,1,5.332,2.438q1.77,2.438,1.77,7.125V0Zm25.336-7.641a7.87,7.87,0,0,1-2.238,5.965q-2.238,2.145-6.6,2.145a12.238,12.238,0,0,1-6.4-1.523V-6.469a12.152,12.152,0,0,0,3.012,1.477,9.6,9.6,0,0,0,3.035.586,3.121,3.121,0,0,0,2.215-.715,2.466,2.466,0,0,0,.762-1.887,3.029,3.029,0,0,0-.8-2.086,13.569,13.569,0,0,0-2.93-2.18,12.021,12.021,0,0,1-4.066-3.6,8.148,8.148,0,0,1-1.23-4.512,6.566,6.566,0,0,1,2.285-5.273,9.365,9.365,0,0,1,6.27-1.945,12.573,12.573,0,0,1,6.539,1.828L364.172-20.3a9.533,9.533,0,0,0-4.406-1.359,2.353,2.353,0,0,0-1.793.633,2.169,2.169,0,0,0-.6,1.547,2.723,2.723,0,0,0,.738,1.875,12.951,12.951,0,0,0,2.754,2.039,17.557,17.557,0,0,1,3.422,2.508,7.484,7.484,0,0,1,1.523,2.344A8.044,8.044,0,0,1,366.352-7.641Z" transform="translate(935 559)"/>
  </g>
</svg>
